<mxfile host="app.diagrams.net" modified="2022-02-18T04:04:14.900Z" agent="5.0 (Windows NT 10.0; Win64; x64) AppleWebKit/537.36 (KHTML, like Gecko) Chrome/98.0.4758.102 Safari/537.36" etag="nJV5azY_rZpQnfAGu8ZS" version="16.6.1" type="github">
  <diagram id="6DpruF9Yd0py6zjCMm1G" name="Page-1">
    <mxGraphModel dx="572" dy="-251" grid="1" gridSize="10" guides="1" tooltips="1" connect="1" arrows="1" fold="1" page="1" pageScale="1" pageWidth="850" pageHeight="1100" math="0" shadow="0">
      <root>
        <mxCell id="0" />
        <mxCell id="1" parent="0" />
        <mxCell id="FQiOv07JGeU5sPxUobCz-1" value="类型注册与初始化" style="shape=umlFrame;whiteSpace=wrap;html=1;fontSize=10;width=110;height=15;labelBorderColor=none;labelBackgroundColor=#FFFFFF;swimlaneFillColor=#ffffff;" parent="1" vertex="1">
          <mxGeometry x="900" y="1280" width="780" height="380" as="geometry" />
        </mxCell>
        <mxCell id="FQiOv07JGeU5sPxUobCz-2" value="type" style="edgeStyle=orthogonalEdgeStyle;rounded=0;orthogonalLoop=1;jettySize=auto;html=1;fontFamily=Lucida Console;fontSize=10;fontColor=#000000;" parent="1" source="FQiOv07JGeU5sPxUobCz-3" target="FQiOv07JGeU5sPxUobCz-19" edge="1">
          <mxGeometry relative="1" as="geometry" />
        </mxCell>
        <mxCell id="FQiOv07JGeU5sPxUobCz-3" value="module_init" style="html=1;" parent="1" vertex="1">
          <mxGeometry x="1162.5" y="1390" width="110" height="30" as="geometry" />
        </mxCell>
        <mxCell id="FQiOv07JGeU5sPxUobCz-5" value="block_init" style="html=1;" parent="1" vertex="1">
          <mxGeometry x="1019.9000000000001" y="1350" width="80" height="20" as="geometry" />
        </mxCell>
        <mxCell id="FQiOv07JGeU5sPxUobCz-6" value="opts_init" style="html=1;" parent="1" vertex="1">
          <mxGeometry x="1129.9" y="1350" width="80" height="20" as="geometry" />
        </mxCell>
        <mxCell id="FQiOv07JGeU5sPxUobCz-7" value="type_init" style="html=1;" parent="1" vertex="1">
          <mxGeometry x="1229.9" y="1350" width="80" height="20" as="geometry" />
        </mxCell>
        <mxCell id="FQiOv07JGeU5sPxUobCz-8" value="trace_init" style="html=1;" parent="1" vertex="1">
          <mxGeometry x="1329.9" y="1350" width="80" height="20" as="geometry" />
        </mxCell>
        <mxCell id="FQiOv07JGeU5sPxUobCz-9" value="" style="endArrow=open;endFill=1;endSize=12;html=1;rounded=0;exitX=0.5;exitY=1;exitDx=0;exitDy=0;entryX=0.5;entryY=0;entryDx=0;entryDy=0;" parent="1" source="FQiOv07JGeU5sPxUobCz-5" target="FQiOv07JGeU5sPxUobCz-3" edge="1">
          <mxGeometry width="160" relative="1" as="geometry">
            <mxPoint x="820" y="1530" as="sourcePoint" />
            <mxPoint x="980" y="1530" as="targetPoint" />
          </mxGeometry>
        </mxCell>
        <mxCell id="FQiOv07JGeU5sPxUobCz-10" value="" style="endArrow=open;endFill=1;endSize=12;html=1;rounded=0;exitX=0.5;exitY=1;exitDx=0;exitDy=0;entryX=0.5;entryY=0;entryDx=0;entryDy=0;" parent="1" source="FQiOv07JGeU5sPxUobCz-6" target="FQiOv07JGeU5sPxUobCz-3" edge="1">
          <mxGeometry width="160" relative="1" as="geometry">
            <mxPoint x="1070" y="1340" as="sourcePoint" />
            <mxPoint x="1189.2307692307695" y="1390" as="targetPoint" />
          </mxGeometry>
        </mxCell>
        <mxCell id="FQiOv07JGeU5sPxUobCz-11" value="" style="endArrow=open;endFill=1;endSize=12;html=1;rounded=0;exitX=0.5;exitY=1;exitDx=0;exitDy=0;entryX=0.5;entryY=0;entryDx=0;entryDy=0;" parent="1" source="FQiOv07JGeU5sPxUobCz-7" target="FQiOv07JGeU5sPxUobCz-3" edge="1">
          <mxGeometry width="160" relative="1" as="geometry">
            <mxPoint x="1180" y="1340" as="sourcePoint" />
            <mxPoint x="1225" y="1390" as="targetPoint" />
          </mxGeometry>
        </mxCell>
        <mxCell id="FQiOv07JGeU5sPxUobCz-12" value="" style="endArrow=open;endFill=1;endSize=12;html=1;rounded=0;entryX=0.5;entryY=0;entryDx=0;entryDy=0;" parent="1" source="FQiOv07JGeU5sPxUobCz-8" target="FQiOv07JGeU5sPxUobCz-3" edge="1">
          <mxGeometry width="160" relative="1" as="geometry">
            <mxPoint x="1280" y="1340" as="sourcePoint" />
            <mxPoint x="1250" y="1380" as="targetPoint" />
          </mxGeometry>
        </mxCell>
        <mxCell id="FQiOv07JGeU5sPxUobCz-13" value="&lt;div&gt;&lt;span style=&quot;font-size: 10px&quot;&gt;#define &lt;b&gt;module_init&lt;/b&gt;(&lt;b&gt;function&lt;/b&gt;, type)&amp;nbsp; &amp;nbsp; &amp;nbsp; &amp;nbsp;\&lt;/span&gt;&lt;/div&gt;&lt;div&gt;&lt;span style=&quot;font-size: 10px&quot;&gt;static void __attribute__((&lt;b&gt;constructor&lt;/b&gt;))&amp;nbsp; \&lt;/span&gt;&lt;/div&gt;&lt;div&gt;&lt;span style=&quot;font-size: 10px&quot;&gt;&lt;span&gt; &lt;/span&gt;do_qemu_init_ ## function(void)&amp;nbsp; &amp;nbsp; &amp;nbsp; &amp;nbsp;\&lt;/span&gt;&lt;/div&gt;&lt;div&gt;&lt;span style=&quot;font-size: 10px&quot;&gt;{&amp;nbsp; &amp;nbsp; &amp;nbsp; &amp;nbsp; &amp;nbsp; &amp;nbsp; &amp;nbsp; &amp;nbsp; &amp;nbsp; &amp;nbsp; &amp;nbsp; &amp;nbsp; &amp;nbsp; &amp;nbsp; &amp;nbsp; &amp;nbsp; &amp;nbsp; &amp;nbsp; &amp;nbsp; &amp;nbsp; &amp;nbsp;\&lt;/span&gt;&lt;/div&gt;&lt;div&gt;&lt;span style=&quot;font-size: 10px&quot;&gt;&amp;nbsp; &amp;nbsp; register_module_init(function, type); \&lt;/span&gt;&lt;/div&gt;&lt;div&gt;&lt;span style=&quot;font-size: 10px&quot;&gt;}&lt;/span&gt;&lt;/div&gt;" style="text;html=1;align=left;verticalAlign=middle;resizable=0;points=[];autosize=1;strokeColor=none;fillColor=none;fontSize=10;fontFamily=Lucida Console;" parent="1" vertex="1">
          <mxGeometry x="1323.1000000000001" y="1390" width="330" height="80" as="geometry" />
        </mxCell>
        <mxCell id="FQiOv07JGeU5sPxUobCz-14" value="&lt;div style=&quot;text-align: left&quot;&gt;新类型注册&lt;/div&gt;&lt;div style=&quot;text-align: left&quot;&gt;&lt;span style=&quot;font-size: 10px&quot;&gt;type_init(stm32f2xx_usart_register_types)&lt;/span&gt;&lt;br&gt;&lt;/div&gt;" style="html=1;labelBackgroundColor=none;labelBorderColor=none;fontFamily=Lucida Console;fontSize=10;" parent="1" vertex="1">
          <mxGeometry x="1360" y="1300" width="310" height="30" as="geometry" />
        </mxCell>
        <mxCell id="FQiOv07JGeU5sPxUobCz-15" value="" style="endArrow=open;endFill=1;endSize=12;html=1;rounded=0;fontFamily=Lucida Console;fontSize=10;exitX=0.5;exitY=1;exitDx=0;exitDy=0;entryX=0.5;entryY=0;entryDx=0;entryDy=0;" parent="1" source="FQiOv07JGeU5sPxUobCz-14" target="FQiOv07JGeU5sPxUobCz-7" edge="1">
          <mxGeometry width="160" relative="1" as="geometry">
            <mxPoint x="1080" y="1220" as="sourcePoint" />
            <mxPoint x="1240" y="1220" as="targetPoint" />
          </mxGeometry>
        </mxCell>
        <mxCell id="FQiOv07JGeU5sPxUobCz-16" value="&lt;div style=&quot;text-align: left&quot;&gt;/block - 驱动注册&lt;/div&gt;&lt;div style=&quot;text-align: left&quot;&gt;&lt;span style=&quot;font-size: 10px&quot;&gt;block_init(bdrv_ssh_init)&lt;/span&gt;&lt;br&gt;&lt;/div&gt;" style="html=1;labelBackgroundColor=none;labelBorderColor=none;fontFamily=Lucida Console;fontSize=10;" parent="1" vertex="1">
          <mxGeometry x="900.0000000000002" y="1300" width="190.1" height="30" as="geometry" />
        </mxCell>
        <mxCell id="FQiOv07JGeU5sPxUobCz-17" value="" style="endArrow=open;endFill=1;endSize=12;html=1;rounded=0;fontFamily=Lucida Console;fontSize=10;exitX=0.5;exitY=1;exitDx=0;exitDy=0;entryX=0.5;entryY=0;entryDx=0;entryDy=0;" parent="1" source="FQiOv07JGeU5sPxUobCz-16" target="FQiOv07JGeU5sPxUobCz-5" edge="1">
          <mxGeometry width="160" relative="1" as="geometry">
            <mxPoint x="1365" y="1290" as="sourcePoint" />
            <mxPoint x="1279.9" y="1360" as="targetPoint" />
          </mxGeometry>
        </mxCell>
        <mxCell id="FQiOv07JGeU5sPxUobCz-18" value="insert(type, tail)" style="edgeStyle=orthogonalEdgeStyle;rounded=0;orthogonalLoop=1;jettySize=auto;html=1;fontFamily=Lucida Console;fontSize=10;fontColor=#000000;entryX=0.5;entryY=0;entryDx=0;entryDy=0;" parent="1" source="FQiOv07JGeU5sPxUobCz-19" target="FQiOv07JGeU5sPxUobCz-24" edge="1">
          <mxGeometry relative="1" as="geometry">
            <mxPoint x="1214.9" y="1490" as="targetPoint" />
          </mxGeometry>
        </mxCell>
        <mxCell id="FQiOv07JGeU5sPxUobCz-19" value="register_module_init" style="html=1;" parent="1" vertex="1">
          <mxGeometry x="1162.5" y="1445" width="110" height="20" as="geometry" />
        </mxCell>
        <mxCell id="FQiOv07JGeU5sPxUobCz-20" value="qmeu命令行选项注册:&lt;br&gt;opts_init(smbios_register_config)" style="text;whiteSpace=wrap;html=1;fontSize=10;fontFamily=Lucida Console;fontColor=#000000;labelBorderColor=default;spacing=0;" parent="1" vertex="1">
          <mxGeometry x="1099.9" y="1296" width="250" height="30" as="geometry" />
        </mxCell>
        <mxCell id="FQiOv07JGeU5sPxUobCz-21" value="" style="endArrow=open;endFill=1;endSize=12;html=1;rounded=0;fontFamily=Lucida Console;fontSize=10;exitX=0.5;exitY=1;exitDx=0;exitDy=0;entryX=0.5;entryY=0;entryDx=0;entryDy=0;" parent="1" source="FQiOv07JGeU5sPxUobCz-20" target="FQiOv07JGeU5sPxUobCz-6" edge="1">
          <mxGeometry width="160" relative="1" as="geometry">
            <mxPoint x="1005.0500000000002" y="1340" as="sourcePoint" />
            <mxPoint x="1069.9" y="1360" as="targetPoint" />
          </mxGeometry>
        </mxCell>
        <mxCell id="FQiOv07JGeU5sPxUobCz-22" style="edgeStyle=orthogonalEdgeStyle;rounded=0;orthogonalLoop=1;jettySize=auto;html=1;entryX=0.5;entryY=1;entryDx=0;entryDy=0;fontFamily=Lucida Console;fontSize=10;fontColor=#000000;" parent="1" source="FQiOv07JGeU5sPxUobCz-23" target="FQiOv07JGeU5sPxUobCz-24" edge="1">
          <mxGeometry relative="1" as="geometry">
            <mxPoint x="1214.9" y="1510" as="targetPoint" />
          </mxGeometry>
        </mxCell>
        <mxCell id="FQiOv07JGeU5sPxUobCz-23" value="&lt;div&gt;&lt;span style=&quot;font-size: 10px&quot;&gt;qemu_init: , &amp;lt;./softmmu/vl.c 2866&amp;gt;&lt;/span&gt;&lt;/div&gt;&lt;div&gt;&lt;span style=&quot;font-size: 10px&quot;&gt;+-module_call_init: MODULE_INIT_&lt;b&gt;TRACE-&amp;gt;QOM-&amp;gt;MIGRATION-&amp;gt;OPTS&lt;/b&gt;&lt;/span&gt;&lt;/div&gt;&lt;div&gt;&lt;span style=&quot;font-size: 10px&quot;&gt;\-bdrv_init_with_whitelist: void (void)&lt;/span&gt;&lt;/div&gt;&lt;div&gt;&lt;span style=&quot;font-size: 10px&quot;&gt;&amp;nbsp; \-bdrv_init: void (void), &amp;lt;./block.c 5754&amp;gt;&lt;/span&gt;&lt;/div&gt;&lt;div&gt;&lt;span style=&quot;font-size: 10px&quot;&gt;&amp;nbsp; &amp;nbsp; \-module_call_init: MODULE_INIT_&lt;b&gt;BLOCK&lt;/b&gt;&lt;/span&gt;&lt;/div&gt;&lt;div&gt;&lt;span style=&quot;font-size: 10px&quot;&gt;&amp;nbsp; &amp;nbsp; &amp;nbsp;\-&lt;b&gt;init_type_list[type].init()&lt;/b&gt;&lt;/span&gt;&lt;/div&gt;&lt;div&gt;&lt;/div&gt;" style="text;html=1;align=left;verticalAlign=middle;resizable=0;points=[];autosize=1;strokeColor=none;fillColor=none;fontSize=10;fontFamily=Lucida Console;fontColor=#000000;" parent="1" vertex="1">
          <mxGeometry x="997.5" y="1550" width="450" height="80" as="geometry" />
        </mxCell>
        <mxCell id="FQiOv07JGeU5sPxUobCz-24" value="&lt;span style=&quot;text-align: left&quot;&gt;ModuleTypeList init_type_list[MODULE_INIT_MAX]&lt;/span&gt;" style="html=1;labelBackgroundColor=none;labelBorderColor=none;fontFamily=Lucida Console;fontSize=10;fontColor=#000000;" parent="1" vertex="1">
          <mxGeometry x="1045" y="1490" width="345" height="30" as="geometry" />
        </mxCell>
      </root>
    </mxGraphModel>
  </diagram>
</mxfile>
